<?xml version="1.0" encoding="UTF-8"?>
<svg width="154px" height="68px" viewBox="0 0 154 68" version="1.1" xmlns="http://www.w3.org/2000/svg" xmlns:xlink="http://www.w3.org/1999/xlink">
    <title>Atom/Logo/AmsterdamNL/Desktop</title>
    <g id="Symbols" stroke="none" stroke-width="1" fill="none" fill-rule="evenodd">
        <g id="Atom/Logo/AmsterdamNL/Desktop" transform="translate(0.000000, 1.000000)" fill="#EC0000">
            <g transform="translate(0.000000, -1.000000)">
                <path d="M39.913,20.414 C41.201,20.414 42.3395,20.3028333 43.3285,20.0805 C44.3175,19.8581667 45.226,19.5476667 46.054,19.149 L46.054,19.149 L46.054,10.708 L39.821,10.708 L39.821,13.1 L43.248,13.1 L43.248,17.24 C42.328,17.6233333 41.247,17.815 40.005,17.815 C39.1003333,17.815 38.2915,17.6655 37.5785,17.3665 C36.8655,17.0675 36.2598333,16.6496667 35.7615,16.113 C35.2631667,15.5763333 34.8798333,14.9438333 34.6115,14.2155 C34.3431667,13.4871667 34.209,12.686 34.209,11.812 C34.209,10.9686667 34.3431667,10.1866667 34.6115,9.466 C34.8798333,8.74533333 35.2593333,8.11666667 35.75,7.58 C36.2406667,7.04333333 36.8348333,6.62166667 37.5325,6.315 C38.2301667,6.00833333 39.0083333,5.855 39.867,5.855 C40.741,5.855 41.5498333,6.016 42.2935,6.338 C43.0371667,6.66 43.616,7.051 44.03,7.511 L44.03,7.511 L46.031,5.349 C45.3716667,4.73566667 44.5015,4.24116667 43.4205,3.8655 C42.3395,3.48983333 41.1473333,3.302 39.844,3.302 C38.5866667,3.302 37.4213333,3.50133333 36.348,3.9 C35.2746667,4.29866667 34.3431667,4.866 33.5535,5.602 C32.7638333,6.338 32.1428333,7.23116667 31.6905,8.2815 C31.2381667,9.33183333 31.012,10.5086667 31.012,11.812 C31.012,13.0846667 31.2305,14.2461667 31.6675,15.2965 C32.1045,16.3468333 32.714,17.2515 33.496,18.0105 C34.278,18.7695 35.2133333,19.3598333 36.302,19.7815 C37.3906667,20.2031667 38.5943333,20.414 39.913,20.414 Z M54.7252464,20.322 C56.7952464,20.322 58.3745798,19.586 59.4632464,18.114 L59.4632464,18.114 L57.6232464,16.642 C57.3165798,17.0866667 56.9255798,17.4355 56.4502464,17.6885 C55.9749131,17.9415 55.3922464,18.068 54.7022464,18.068 C54.3035798,18.068 53.9202464,17.999 53.5522464,17.861 C53.1842464,17.723 52.8545798,17.5351667 52.5632464,17.2975 C52.2719131,17.0598333 52.0380798,16.7761667 51.8617464,16.4465 C51.6854131,16.1168333 51.5819131,15.7526667 51.5512464,15.354 L51.5512464,15.354 L59.9462464,15.354 C59.9615798,15.2313333 59.9692464,15.1086667 59.9692464,14.986 L59.9692464,14.986 L59.9692464,14.618 C59.9692464,13.6213333 59.8350798,12.7511667 59.5667464,12.0075 C59.2984131,11.2638333 58.9265798,10.6428333 58.4512464,10.1445 C57.9759131,9.64616667 57.4124131,9.2705 56.7607464,9.0175 C56.1090798,8.7645 55.3999131,8.638 54.6332464,8.638 C53.8052464,8.638 53.0347464,8.77983333 52.3217464,9.0635 C51.6087464,9.34716667 50.9915798,9.74583333 50.4702464,10.2595 C49.9489131,10.7731667 49.5387464,11.3941667 49.2397464,12.1225 C48.9407464,12.8508333 48.7912464,13.6596667 48.7912464,14.549 C48.7912464,15.4536667 48.9407464,16.2625 49.2397464,16.9755 C49.5387464,17.6885 49.9527464,18.2903333 50.4817464,18.781 C51.0107464,19.2716667 51.6355798,19.6511667 52.3562464,19.9195 C53.0769131,20.1878333 53.8665798,20.322 54.7252464,20.322 Z M57.2092464,13.376 L51.5512464,13.376 C51.6125798,12.594 51.9307464,11.9538333 52.5057464,11.4555 C53.0807464,10.9571667 53.7822464,10.708 54.6102464,10.708 C55.0549131,10.708 55.4420798,10.7808333 55.7717464,10.9265 C56.1014131,11.0721667 56.3735798,11.2676667 56.5882464,11.513 C56.8029131,11.7583333 56.9600798,12.042 57.0597464,12.364 C57.1594131,12.686 57.2092464,13.0233333 57.2092464,13.376 L57.2092464,13.376 Z M65.3974929,20 L65.3974929,13.928 C65.3974929,13.56 65.4473262,13.1958333 65.5469929,12.8355 C65.6466595,12.4751667 65.7923262,12.157 65.9839929,11.881 C66.1756595,11.605 66.4248262,11.3788333 66.7314929,11.2025 C67.0381595,11.0261667 67.3984929,10.938 67.8124929,10.938 C68.5178262,10.938 69.0353262,11.1641667 69.3649929,11.6165 C69.6946595,12.0688333 69.8594929,12.64 69.8594929,13.33 L69.8594929,13.33 L69.8594929,20 L72.6194929,20 L72.6194929,13.974 C72.6194929,13.6213333 72.6654929,13.2648333 72.7574929,12.9045 C72.8494929,12.5441667 72.9951595,12.2183333 73.1944929,11.927 C73.3938262,11.6356667 73.6468262,11.398 73.9534929,11.214 C74.2601595,11.03 74.6281595,10.938 75.0574929,10.938 C75.5021595,10.938 75.8586595,11.03 76.1269929,11.214 C76.3953262,11.398 76.6061595,11.6318333 76.7594929,11.9155 C76.9128262,12.1991667 77.0124929,12.5173333 77.0584929,12.87 C77.1044929,13.2226667 77.1274929,13.56 77.1274929,13.882 L77.1274929,13.882 L77.1274929,20 L79.8874929,20 L79.8874929,13.1 C79.8874929,12.5326667 79.8108262,11.9806667 79.6574929,11.444 C79.5041595,10.9073333 79.2626595,10.432 78.9329929,10.018 C78.6033262,9.604 78.1816595,9.2705 77.6679929,9.0175 C77.1543262,8.7645 76.5371595,8.638 75.8164929,8.638 C74.9884929,8.638 74.2678262,8.81816667 73.6544929,9.1785 C73.0411595,9.53883333 72.5504929,10.0563333 72.1824929,10.731 C71.8758262,10.1023333 71.4388262,9.59633333 70.8714929,9.213 C70.3041595,8.82966667 69.5911595,8.638 68.7324929,8.638 C68.2878262,8.638 67.8814929,8.6955 67.5134929,8.8105 C67.1454929,8.9255 66.8196595,9.08266667 66.5359929,9.282 C66.2523262,9.48133333 66.0069929,9.70366667 65.7999929,9.949 C65.5929929,10.1943333 65.4281595,10.455 65.3054929,10.731 L65.3054929,10.731 L65.2594929,10.731 L65.2594929,8.96 L62.6374929,8.96 L62.6374929,20 L65.3974929,20 Z M88.3977393,20.322 C90.4677393,20.322 92.0470726,19.586 93.1357393,18.114 L93.1357393,18.114 L91.2957393,16.642 C90.9890726,17.0866667 90.5980726,17.4355 90.1227393,17.6885 C89.647406,17.9415 89.0647393,18.068 88.3747393,18.068 C87.9760726,18.068 87.5927393,17.999 87.2247393,17.861 C86.8567393,17.723 86.5270726,17.5351667 86.2357393,17.2975 C85.944406,17.0598333 85.7105726,16.7761667 85.5342393,16.4465 C85.357906,16.1168333 85.254406,15.7526667 85.2237393,15.354 L85.2237393,15.354 L93.6187393,15.354 C93.6340726,15.2313333 93.6417393,15.1086667 93.6417393,14.986 L93.6417393,14.986 L93.6417393,14.618 C93.6417393,13.6213333 93.5075726,12.7511667 93.2392393,12.0075 C92.970906,11.2638333 92.5990726,10.6428333 92.1237393,10.1445 C91.648406,9.64616667 91.084906,9.2705 90.4332393,9.0175 C89.7815726,8.7645 89.072406,8.638 88.3057393,8.638 C87.4777393,8.638 86.7072393,8.77983333 85.9942393,9.0635 C85.2812393,9.34716667 84.6640726,9.74583333 84.1427393,10.2595 C83.621406,10.7731667 83.2112393,11.3941667 82.9122393,12.1225 C82.6132393,12.8508333 82.4637393,13.6596667 82.4637393,14.549 C82.4637393,15.4536667 82.6132393,16.2625 82.9122393,16.9755 C83.2112393,17.6885 83.6252393,18.2903333 84.1542393,18.781 C84.6832393,19.2716667 85.3080726,19.6511667 86.0287393,19.9195 C86.749406,20.1878333 87.5390726,20.322 88.3977393,20.322 Z M90.8817393,13.376 L85.2237393,13.376 C85.2850726,12.594 85.6032393,11.9538333 86.1782393,11.4555 C86.7532393,10.9571667 87.4547393,10.708 88.2827393,10.708 C88.727406,10.708 89.1145726,10.7808333 89.4442393,10.9265 C89.773906,11.0721667 90.0460726,11.2676667 90.2607393,11.513 C90.475406,11.7583333 90.6325726,12.042 90.7322393,12.364 C90.831906,12.686 90.8817393,13.0233333 90.8817393,13.376 L90.8817393,13.376 Z M101.599986,20.322 C103.669986,20.322 105.249319,19.586 106.337986,18.114 L106.337986,18.114 L104.497986,16.642 C104.191319,17.0866667 103.800319,17.4355 103.324986,17.6885 C102.849652,17.9415 102.266986,18.068 101.576986,18.068 C101.178319,18.068 100.794986,17.999 100.426986,17.861 C100.058986,17.723 99.729319,17.5351667 99.4379857,17.2975 C99.1466524,17.0598333 98.912819,16.7761667 98.7364857,16.4465 C98.5601524,16.1168333 98.4566524,15.7526667 98.4259857,15.354 L98.4259857,15.354 L106.820986,15.354 C106.836319,15.2313333 106.843986,15.1086667 106.843986,14.986 L106.843986,14.986 L106.843986,14.618 C106.843986,13.6213333 106.709819,12.7511667 106.441486,12.0075 C106.173152,11.2638333 105.801319,10.6428333 105.325986,10.1445 C104.850652,9.64616667 104.287152,9.2705 103.635486,9.0175 C102.983819,8.7645 102.274652,8.638 101.507986,8.638 C100.679986,8.638 99.9094857,8.77983333 99.1964857,9.0635 C98.4834857,9.34716667 97.866319,9.74583333 97.3449857,10.2595 C96.8236524,10.7731667 96.4134857,11.3941667 96.1144857,12.1225 C95.8154857,12.8508333 95.6659857,13.6596667 95.6659857,14.549 C95.6659857,15.4536667 95.8154857,16.2625 96.1144857,16.9755 C96.4134857,17.6885 96.8274857,18.2903333 97.3564857,18.781 C97.8854857,19.2716667 98.510319,19.6511667 99.2309857,19.9195 C99.9516524,20.1878333 100.741319,20.322 101.599986,20.322 Z M104.083986,13.376 L98.4259857,13.376 C98.487319,12.594 98.8054857,11.9538333 99.3804857,11.4555 C99.9554857,10.9571667 100.656986,10.708 101.484986,10.708 C101.929652,10.708 102.316819,10.7808333 102.646486,10.9265 C102.976152,11.0721667 103.248319,11.2676667 103.462986,11.513 C103.677652,11.7583333 103.834819,12.042 103.934486,12.364 C104.034152,12.686 104.083986,13.0233333 104.083986,13.376 L104.083986,13.376 Z M112.272232,20 L112.272232,13.928 C112.272232,13.56 112.325899,13.1958333 112.433232,12.8355 C112.540565,12.4751667 112.697732,12.157 112.904732,11.881 C113.111732,11.605 113.376232,11.3788333 113.698232,11.2025 C114.020232,11.0261667 114.403565,10.938 114.848232,10.938 C115.292899,10.938 115.649399,11.03 115.917732,11.214 C116.186065,11.398 116.396899,11.6318333 116.550232,11.9155 C116.703565,12.1991667 116.803232,12.5173333 116.849232,12.87 C116.895232,13.2226667 116.918232,13.56 116.918232,13.882 L116.918232,13.882 L116.918232,20 L119.678232,20 L119.678232,13.1 C119.678232,12.5326667 119.601565,11.9806667 119.448232,11.444 C119.294899,10.9073333 119.053399,10.432 118.723732,10.018 C118.394065,9.604 117.972399,9.2705 117.458732,9.0175 C116.945065,8.7645 116.327899,8.638 115.607232,8.638 C114.779232,8.638 114.062399,8.84883333 113.456732,9.2705 C112.851065,9.69216667 112.425565,10.179 112.180232,10.731 L112.180232,10.731 L112.134232,10.731 L112.134232,8.96 L109.512232,8.96 L109.512232,20 L112.272232,20 Z M126.831479,20.23 C127.138145,20.23 127.460145,20.2031667 127.797479,20.1495 C128.134812,20.0958333 128.426145,20.023 128.671479,19.931 L128.671479,19.931 L128.579479,17.769 C128.410812,17.8456667 128.219145,17.9031667 128.004479,17.9415 C127.789812,17.9798333 127.590479,17.999 127.406479,17.999 C126.793145,17.999 126.398312,17.838 126.221979,17.516 C126.045645,17.194 125.957479,16.7876667 125.957479,16.297 L125.957479,16.297 L125.957479,11.168 L128.717479,11.168 L128.717479,8.96 L125.957479,8.96 L125.957479,5.763 L123.243479,5.763 L123.243479,8.96 L121.311479,8.96 L121.311479,11.168 L123.243479,11.168 L123.243479,16.32 C123.243479,16.8566667 123.293312,17.3588333 123.392979,17.8265 C123.492645,18.2941667 123.676645,18.7081667 123.944979,19.0685 C124.213312,19.4288333 124.577479,19.7125 125.037479,19.9195 C125.497479,20.1265 126.095479,20.23 126.831479,20.23 Z M136.008725,20.322 C138.078725,20.322 139.658058,19.586 140.746725,18.114 L140.746725,18.114 L138.906725,16.642 C138.600058,17.0866667 138.209058,17.4355 137.733725,17.6885 C137.258392,17.9415 136.675725,18.068 135.985725,18.068 C135.587058,18.068 135.203725,17.999 134.835725,17.861 C134.467725,17.723 134.138058,17.5351667 133.846725,17.2975 C133.555392,17.0598333 133.321558,16.7761667 133.145225,16.4465 C132.968892,16.1168333 132.865392,15.7526667 132.834725,15.354 L132.834725,15.354 L141.229725,15.354 C141.245058,15.2313333 141.252725,15.1086667 141.252725,14.986 L141.252725,14.986 L141.252725,14.618 C141.252725,13.6213333 141.118558,12.7511667 140.850225,12.0075 C140.581892,11.2638333 140.210058,10.6428333 139.734725,10.1445 C139.259392,9.64616667 138.695892,9.2705 138.044225,9.0175 C137.392558,8.7645 136.683392,8.638 135.916725,8.638 C135.088725,8.638 134.318225,8.77983333 133.605225,9.0635 C132.892225,9.34716667 132.275058,9.74583333 131.753725,10.2595 C131.232392,10.7731667 130.822225,11.3941667 130.523225,12.1225 C130.224225,12.8508333 130.074725,13.6596667 130.074725,14.549 C130.074725,15.4536667 130.224225,16.2625 130.523225,16.9755 C130.822225,17.6885 131.236225,18.2903333 131.765225,18.781 C132.294225,19.2716667 132.919058,19.6511667 133.639725,19.9195 C134.360392,20.1878333 135.150058,20.322 136.008725,20.322 Z M138.492725,13.376 L132.834725,13.376 C132.896058,12.594 133.214225,11.9538333 133.789225,11.4555 C134.364225,10.9571667 135.065725,10.708 135.893725,10.708 C136.338392,10.708 136.725558,10.7808333 137.055225,10.9265 C137.384892,11.0721667 137.657058,11.2676667 137.871725,11.513 C138.086392,11.7583333 138.243558,12.042 138.343225,12.364 C138.442892,12.686 138.492725,13.0233333 138.492725,13.376 L138.492725,13.376 Z M33.059,43 L34.531,39.274 L41.592,39.274 L43.11,43 L46.422,43 L39.407,26.716 L36.9,26.716 L29.816,43 L33.059,43 Z M40.58,36.79 L35.52,36.79 L38.073,30.166 L40.58,36.79 Z M50.6542464,43 L50.6542464,36.928 C50.6542464,36.56 50.7040798,36.1958333 50.8037464,35.8355 C50.9034131,35.4751667 51.0490798,35.157 51.2407464,34.881 C51.4324131,34.605 51.6815798,34.3788333 51.9882464,34.2025 C52.2949131,34.0261667 52.6552464,33.938 53.0692464,33.938 C53.7745798,33.938 54.2920798,34.1641667 54.6217464,34.6165 C54.9514131,35.0688333 55.1162464,35.64 55.1162464,36.33 L55.1162464,36.33 L55.1162464,43 L57.8762464,43 L57.8762464,36.974 C57.8762464,36.6213333 57.9222464,36.2648333 58.0142464,35.9045 C58.1062464,35.5441667 58.2519131,35.2183333 58.4512464,34.927 C58.6505798,34.6356667 58.9035798,34.398 59.2102464,34.214 C59.5169131,34.03 59.8849131,33.938 60.3142464,33.938 C60.7589131,33.938 61.1154131,34.03 61.3837464,34.214 C61.6520798,34.398 61.8629131,34.6318333 62.0162464,34.9155 C62.1695798,35.1991667 62.2692464,35.5173333 62.3152464,35.87 C62.3612464,36.2226667 62.3842464,36.56 62.3842464,36.882 L62.3842464,36.882 L62.3842464,43 L65.1442464,43 L65.1442464,36.1 C65.1442464,35.5326667 65.0675798,34.9806667 64.9142464,34.444 C64.7609131,33.9073333 64.5194131,33.432 64.1897464,33.018 C63.8600798,32.604 63.4384131,32.2705 62.9247464,32.0175 C62.4110798,31.7645 61.7939131,31.638 61.0732464,31.638 C60.2452464,31.638 59.5245798,31.8181667 58.9112464,32.1785 C58.2979131,32.5388333 57.8072464,33.0563333 57.4392464,33.731 C57.1325798,33.1023333 56.6955798,32.5963333 56.1282464,32.213 C55.5609131,31.8296667 54.8479131,31.638 53.9892464,31.638 C53.5445798,31.638 53.1382464,31.6955 52.7702464,31.8105 C52.4022464,31.9255 52.0764131,32.0826667 51.7927464,32.282 C51.5090798,32.4813333 51.2637464,32.7036667 51.0567464,32.949 C50.8497464,33.1943333 50.6849131,33.455 50.5622464,33.731 L50.5622464,33.731 L50.5162464,33.731 L50.5162464,31.96 L47.8942464,31.96 L47.8942464,43 L50.6542464,43 Z M71.5844929,43.322 C72.1824929,43.322 72.7613262,43.2568333 73.3209929,43.1265 C73.8806595,42.9961667 74.3713262,42.7853333 74.7929929,42.494 C75.2146595,42.2026667 75.5519929,41.8231667 75.8049929,41.3555 C76.0579929,40.8878333 76.1844929,40.3166667 76.1844929,39.642 C76.1844929,39.1053333 76.0771595,38.6491667 75.8624929,38.2735 C75.6478262,37.8978333 75.3679929,37.5835 75.0229929,37.3305 C74.6779929,37.0775 74.2946595,36.8743333 73.8729929,36.721 C73.4513262,36.5676667 73.0334929,36.445 72.6194929,36.353 C71.8374929,36.169 71.2433262,35.9888333 70.8369929,35.8125 C70.4306595,35.6361667 70.2274929,35.3333333 70.2274929,34.904 C70.2274929,34.4746667 70.4114929,34.168 70.7794929,33.984 C71.1474929,33.8 71.5538262,33.708 71.9984929,33.708 C72.5044929,33.708 72.9721595,33.8268333 73.4014929,34.0645 C73.8308262,34.3021667 74.1681595,34.582 74.4134929,34.904 L74.4134929,34.904 L76.2074929,33.317 C75.7628262,32.7496667 75.1609929,32.328 74.4019929,32.052 C73.6429929,31.776 72.8648262,31.638 72.0674929,31.638 C71.5154929,31.638 70.9788262,31.707 70.4574929,31.845 C69.9361595,31.983 69.4684929,32.1938333 69.0544929,32.4775 C68.6404929,32.7611667 68.3069929,33.1253333 68.0539929,33.57 C67.8009929,34.0146667 67.6744929,34.5436667 67.6744929,35.157 C67.6744929,35.6783333 67.7664929,36.1153333 67.9504929,36.468 C68.1344929,36.8206667 68.3798262,37.1158333 68.6864929,37.3535 C68.9931595,37.5911667 69.3419929,37.7828333 69.7329929,37.9285 C70.1239929,38.0741667 70.5264929,38.193 70.9404929,38.285 C71.7838262,38.4843333 72.4163262,38.6836667 72.8379929,38.883 C73.2596595,39.0823333 73.4704929,39.412 73.4704929,39.872 C73.4704929,40.1173333 73.4168262,40.3243333 73.3094929,40.493 C73.2021595,40.6616667 73.0603262,40.7958333 72.8839929,40.8955 C72.7076595,40.9951667 72.5159929,41.068 72.3089929,41.114 C72.1019929,41.16 71.8988262,41.183 71.6994929,41.183 C71.1014929,41.183 70.5571595,41.0526667 70.0664929,40.792 C69.5758262,40.5313333 69.1771595,40.2016667 68.8704929,39.803 L68.8704929,39.803 L67.0534929,41.505 C67.5901595,42.0876667 68.2648262,42.5361667 69.0774929,42.8505 C69.8901595,43.1648333 70.7258262,43.322 71.5844929,43.322 Z M82.5097393,43.23 C82.816406,43.23 83.138406,43.2031667 83.4757393,43.1495 C83.8130726,43.0958333 84.104406,43.023 84.3497393,42.931 L84.3497393,42.931 L84.2577393,40.769 C84.0890726,40.8456667 83.897406,40.9031667 83.6827393,40.9415 C83.4680726,40.9798333 83.2687393,40.999 83.0847393,40.999 C82.471406,40.999 82.0765726,40.838 81.9002393,40.516 C81.723906,40.194 81.6357393,39.7876667 81.6357393,39.297 L81.6357393,39.297 L81.6357393,34.168 L84.3957393,34.168 L84.3957393,31.96 L81.6357393,31.96 L81.6357393,28.763 L78.9217393,28.763 L78.9217393,31.96 L76.9897393,31.96 L76.9897393,34.168 L78.9217393,34.168 L78.9217393,39.32 C78.9217393,39.8566667 78.9715726,40.3588333 79.0712393,40.8265 C79.170906,41.2941667 79.354906,41.7081667 79.6232393,42.0685 C79.8915726,42.4288333 80.2557393,42.7125 80.7157393,42.9195 C81.1757393,43.1265 81.7737393,43.23 82.5097393,43.23 Z M91.6869857,43.322 C93.7569857,43.322 95.336319,42.586 96.4249857,41.114 L96.4249857,41.114 L94.5849857,39.642 C94.278319,40.0866667 93.887319,40.4355 93.4119857,40.6885 C92.9366524,40.9415 92.3539857,41.068 91.6639857,41.068 C91.265319,41.068 90.8819857,40.999 90.5139857,40.861 C90.1459857,40.723 89.816319,40.5351667 89.5249857,40.2975 C89.2336524,40.0598333 88.999819,39.7761667 88.8234857,39.4465 C88.6471524,39.1168333 88.5436524,38.7526667 88.5129857,38.354 L88.5129857,38.354 L96.9079857,38.354 C96.923319,38.2313333 96.9309857,38.1086667 96.9309857,37.986 L96.9309857,37.986 L96.9309857,37.618 C96.9309857,36.6213333 96.796819,35.7511667 96.5284857,35.0075 C96.2601524,34.2638333 95.888319,33.6428333 95.4129857,33.1445 C94.9376524,32.6461667 94.3741524,32.2705 93.7224857,32.0175 C93.070819,31.7645 92.3616524,31.638 91.5949857,31.638 C90.7669857,31.638 89.9964857,31.7798333 89.2834857,32.0635 C88.5704857,32.3471667 87.953319,32.7458333 87.4319857,33.2595 C86.9106524,33.7731667 86.5004857,34.3941667 86.2014857,35.1225 C85.9024857,35.8508333 85.7529857,36.6596667 85.7529857,37.549 C85.7529857,38.4536667 85.9024857,39.2625 86.2014857,39.9755 C86.5004857,40.6885 86.9144857,41.2903333 87.4434857,41.781 C87.9724857,42.2716667 88.597319,42.6511667 89.3179857,42.9195 C90.0386524,43.1878333 90.828319,43.322 91.6869857,43.322 Z M94.1709857,36.376 L88.5129857,36.376 C88.574319,35.594 88.8924857,34.9538333 89.4674857,34.4555 C90.0424857,33.9571667 90.7439857,33.708 91.5719857,33.708 C92.0166524,33.708 92.403819,33.7808333 92.7334857,33.9265 C93.0631524,34.0721667 93.335319,34.2676667 93.5499857,34.513 C93.7646524,34.7583333 93.921819,35.042 94.0214857,35.364 C94.1211524,35.686 94.1709857,36.0233333 94.1709857,36.376 L94.1709857,36.376 Z M102.359232,43 L102.359232,37.089 C102.359232,36.8896667 102.397565,36.6213333 102.474232,36.284 C102.550899,35.9466667 102.696565,35.617 102.911232,35.295 C103.125899,34.973 103.424899,34.697 103.808232,34.467 C104.191565,34.237 104.697565,34.122 105.326232,34.122 C105.448899,34.122 105.575399,34.1296667 105.705732,34.145 C105.836065,34.1603333 105.993232,34.191 106.177232,34.237 L106.177232,34.237 L106.177232,31.707 C106.085232,31.6763333 105.977899,31.6571667 105.855232,31.6495 C105.732565,31.6418333 105.617565,31.638 105.510232,31.638 C104.774232,31.638 104.130232,31.8373333 103.578232,32.236 C103.026232,32.6346667 102.596899,33.156 102.290232,33.8 L102.290232,33.8 L102.244232,33.8 L102.244232,31.96 L99.5992321,31.96 L99.5992321,43 L102.359232,43 Z M112.318479,43.322 C113.100479,43.322 113.832645,43.1533333 114.514979,42.816 C115.197312,42.4786667 115.730145,41.988 116.113479,41.344 L116.113479,41.344 L116.159479,41.344 L116.159479,43 L118.781479,43 L118.781479,25.612 L116.021479,25.612 L116.021479,33.363 L115.952479,33.363 C115.814479,33.179 115.638145,32.9873333 115.423479,32.788 C115.208812,32.5886667 114.951979,32.4046667 114.652979,32.236 C114.353979,32.0673333 114.005145,31.9255 113.606479,31.8105 C113.207812,31.6955 112.755479,31.638 112.249479,31.638 C111.467479,31.638 110.746812,31.7875 110.087479,32.0865 C109.428145,32.3855 108.860812,32.7956667 108.385479,33.317 C107.910145,33.8383333 107.542145,34.4516667 107.281479,35.157 C107.020812,35.8623333 106.890479,36.6213333 106.890479,37.434 C106.890479,38.2466667 107.016979,39.0095 107.269979,39.7225 C107.522979,40.4355 107.883312,41.0565 108.350979,41.5855 C108.818645,42.1145 109.385979,42.5361667 110.052979,42.8505 C110.719979,43.1648333 111.475145,43.322 112.318479,43.322 Z M112.870479,41.022 C112.333812,41.022 111.866145,40.9146667 111.467479,40.7 C111.068812,40.4853333 110.739145,40.2093333 110.478479,39.872 C110.217812,39.5346667 110.022312,39.1513333 109.891979,38.722 C109.761645,38.2926667 109.696479,37.8633333 109.696479,37.434 C109.696479,37.0046667 109.761645,36.5791667 109.891979,36.1575 C110.022312,35.7358333 110.217812,35.3563333 110.478479,35.019 C110.739145,34.6816667 111.068812,34.4095 111.467479,34.2025 C111.866145,33.9955 112.333812,33.892 112.870479,33.892 C113.376479,33.892 113.828812,33.9993333 114.227479,34.214 C114.626145,34.4286667 114.967312,34.7046667 115.250979,35.042 C115.534645,35.3793333 115.749312,35.7626667 115.894979,36.192 C116.040645,36.6213333 116.113479,37.0506667 116.113479,37.48 C116.113479,37.9093333 116.040645,38.3348333 115.894979,38.7565 C115.749312,39.1781667 115.534645,39.5576667 115.250979,39.895 C114.967312,40.2323333 114.626145,40.5045 114.227479,40.7115 C113.828812,40.9185 113.376479,41.022 112.870479,41.022 Z M125.497725,43.276 C126.279725,43.276 126.977392,43.1188333 127.590725,42.8045 C128.204058,42.4901667 128.648725,42.0876667 128.924725,41.597 L128.924725,41.597 L128.993725,41.597 L128.993725,43 L131.569725,43 L131.569725,36.284 C131.569725,35.732 131.496892,35.18 131.351225,34.628 C131.205558,34.076 130.948725,33.5776667 130.580725,33.133 C130.212725,32.6883333 129.710558,32.328 129.074225,32.052 C128.437892,31.776 127.629058,31.638 126.647725,31.638 C125.804392,31.638 124.972558,31.7836667 124.152225,32.075 C123.331892,32.3663333 122.607392,32.8033333 121.978725,33.386 L121.978725,33.386 L123.404725,35.065 C123.757392,34.7123333 124.202058,34.4133333 124.738725,34.168 C125.275392,33.9226667 125.835058,33.8 126.417725,33.8 C127.107725,33.8 127.701892,33.9648333 128.200225,34.2945 C128.698558,34.6241667 128.947725,35.134 128.947725,35.824 L128.947725,35.824 L128.947725,36.1 C128.089058,36.1 127.211225,36.1421667 126.314225,36.2265 C125.417225,36.3108333 124.600725,36.4833333 123.864725,36.744 C123.128725,37.0046667 122.526892,37.3803333 122.059225,37.871 C121.591558,38.3616667 121.357725,39.021 121.357725,39.849 C121.357725,40.493 121.491892,41.0335 121.760225,41.4705 C122.028558,41.9075 122.365892,42.2601667 122.772225,42.5285 C123.178558,42.7968333 123.623225,42.9885 124.106225,43.1035 C124.589225,43.2185 125.053058,43.276 125.497725,43.276 Z M126.049725,41.183 C125.819725,41.183 125.589725,41.16 125.359725,41.114 C125.129725,41.068 124.922725,40.9913333 124.738725,40.884 C124.554725,40.7766667 124.405225,40.6348333 124.290225,40.4585 C124.175225,40.2821667 124.117725,40.0636667 124.117725,39.803 C124.117725,39.389 124.255725,39.0631667 124.531725,38.8255 C124.807725,38.5878333 125.152725,38.4038333 125.566725,38.2735 C125.980725,38.1431667 126.433058,38.0588333 126.923725,38.0205 C127.414392,37.9821667 127.882058,37.963 128.326725,37.963 L128.326725,37.963 L128.947725,37.963 L128.947725,38.354 C128.947725,39.228 128.702392,39.918 128.211725,40.424 C127.721058,40.93 127.000392,41.183 126.049725,41.183 Z M137.549971,43 L137.549971,36.928 C137.549971,36.56 137.599805,36.1958333 137.699471,35.8355 C137.799138,35.4751667 137.944805,35.157 138.136471,34.881 C138.328138,34.605 138.577305,34.3788333 138.883971,34.2025 C139.190638,34.0261667 139.550971,33.938 139.964971,33.938 C140.670305,33.938 141.187805,34.1641667 141.517471,34.6165 C141.847138,35.0688333 142.011971,35.64 142.011971,36.33 L142.011971,36.33 L142.011971,43 L144.771971,43 L144.771971,36.974 C144.771971,36.6213333 144.817971,36.2648333 144.909971,35.9045 C145.001971,35.5441667 145.147638,35.2183333 145.346971,34.927 C145.546305,34.6356667 145.799305,34.398 146.105971,34.214 C146.412638,34.03 146.780638,33.938 147.209971,33.938 C147.654638,33.938 148.011138,34.03 148.279471,34.214 C148.547805,34.398 148.758638,34.6318333 148.911971,34.9155 C149.065305,35.1991667 149.164971,35.5173333 149.210971,35.87 C149.256971,36.2226667 149.279971,36.56 149.279971,36.882 L149.279971,36.882 L149.279971,43 L152.039971,43 L152.039971,36.1 C152.039971,35.5326667 151.963305,34.9806667 151.809971,34.444 C151.656638,33.9073333 151.415138,33.432 151.085471,33.018 C150.755805,32.604 150.334138,32.2705 149.820471,32.0175 C149.306805,31.7645 148.689638,31.638 147.968971,31.638 C147.140971,31.638 146.420305,31.8181667 145.806971,32.1785 C145.193638,32.5388333 144.702971,33.0563333 144.334971,33.731 C144.028305,33.1023333 143.591305,32.5963333 143.023971,32.213 C142.456638,31.8296667 141.743638,31.638 140.884971,31.638 C140.440305,31.638 140.033971,31.6955 139.665971,31.8105 C139.297971,31.9255 138.972138,32.0826667 138.688471,32.282 C138.404805,32.4813333 138.159471,32.7036667 137.952471,32.949 C137.745471,33.1943333 137.580638,33.455 137.457971,33.731 L137.457971,33.731 L137.411971,33.731 L137.411971,31.96 L134.789971,31.96 L134.789971,43 L137.549971,43 Z" id="GemeenteAmsterdam" fill-rule="nonzero"></path>
                <g id="Andreaskruisen" transform="translate(0.000000, 1.000000)">
                    <polygon id="Path" points="0 62.9092669 5.86510264 57.0148387 0 51.1204106 3.91006843 47.1907918 9.77517107 53.0852199 15.6402737 47.1907918 19.5503421 51.1204106 13.6852395 57.0148387 19.5503421 62.9092669 15.6402737 66.8388856 9.77517107 60.9444575 3.91006843 66.8388856"></polygon>
                    <polygon id="Path" points="0 15.7184751 5.86510264 9.82404692 0 3.92961877 3.91006843 0 9.77517107 5.89442815 15.6402737 0 19.5503421 3.92961877 13.6852395 9.82404692 19.5503421 15.7184751 15.6402737 19.6480938 9.77517107 13.7536657 3.91006843 19.6480938"></polygon>
                    <polygon id="Path" points="0 39.3335191 5.86510264 33.4390909 0 27.5446628 3.91006843 23.615044 9.77517107 29.5094721 15.6402737 23.615044 19.5503421 27.5446628 13.6852395 33.4390909 19.5503421 39.3335191 15.6402737 43.2631378 9.77517107 37.3687097 3.91006843 43.2631378"></polygon>
                </g>
            </g>
        </g>
    </g>
</svg>